<svg
    version="1.1"
    xmlns="http://www.w3.org/2000/svg"
    xmlns:xlink="http://www.w3.org/1999/xlink"
    width="116px"
    height="19px"
    viewBox="0 0 116 19"
  >
    <g fill="#FFF" fill-rule="evenodd">
      <path
        d="M40.976 18l-6.84-11.112h-.072L34.16 18h-3.984V1.008h4.68l6.816 11.088h.072l-.096-11.088h3.984V18h-4.656zm25.584 0h-4.104L56.024 1.008h4.608l3.936 12.048h.096l3.912-12.048h4.536L66.56 18zm16.944 0V1.008h4.128V18h-4.128zm26.88 0l-3.72-6-3.576 6h-4.896l5.952-8.976-5.472-8.016h4.944l3.168 5.28 3.12-5.28h4.776l-5.376 8.016L115.448 18h-5.064z"
      ></path>
      <path
        d="M9.5 19C4.25329488 19 0 14.7467051 0 9.5 0 4.25329488 4.25329488 0 9.5 0 14.7467051 0 19 4.25329488 19 9.5c0 5.2467051-4.2532949 9.5-9.5 9.5zM7 5v9l7-4.5656786L7 5z"
      ></path>
    </g>
  </svg>